<svg width="290" height="32" viewBox="0 0 290 32" fill="none" xmlns="http://www.w3.org/2000/svg">
<path d="M277.18 24.7V17.2L267.06 6.70002H270.06L278.31 15.51L286.56 6.70002H289.56L279.43 17.2V24.7H277.18ZM253.2 24.7V6.70002H264.45V8.58002H255.45V24.7H253.2ZM251.25 24.7V10.2H249V24.7H251.25ZM230.05 24.7V6.70002H232.3V22.82H246.55V24.7H230.05ZM203.05 24.7L213.55 6.70002H216.55L227.05 24.7H224.42L222.17 20.58H207.92L205.67 24.7H203.05ZM209.05 18.7H221.05L215.05 8.20002L209.05 18.7ZM183.55 24.7V6.70002H201.22V8.58002H185.8V14.58H200.57V16.45H185.8V22.83H201.55V24.7H183.55ZM159.12 6.70002H171.17C172.93 6.70002 174.34 6.78002 175.41 6.93002C176.49 7.09002 177.31 7.36002 177.86 7.74002C178.42 8.13002 178.79 8.65002 178.99 9.31002C179.18 9.98002 179.28 10.82 179.28 11.83V12.3C179.28 13.24 179.17 14.05 178.94 14.73C178.72 15.4 178.3 15.95 177.66 16.37C177.03 16.78 176.09 17.07 174.85 17.25L178.77 24.7H176.52L172.68 17.41C172.53 17.42 172.36 17.42 172.19 17.42C172.03 17.42 171.85 17.42 171.68 17.42H161.38V24.7H159.13V6.70002H159.12ZM161.37 15.48H171.32C172.66 15.48 173.71 15.43 174.48 15.35C175.25 15.25 175.82 15.09 176.18 14.87C176.54 14.64 176.78 14.32 176.88 13.91C176.98 13.49 177.03 12.96 177.03 12.3V11.83C177.03 11.09 176.96 10.5 176.82 10.08C176.68 9.65002 176.4 9.33002 175.98 9.13002C175.56 8.92002 174.93 8.79002 174.09 8.74002C173.25 8.68002 172.14 8.65002 170.74 8.65002H161.37V15.48ZM146.32 19.5C146.32 18.8 146.26 18.25 146.15 17.86C146.04 17.46 145.8 17.16 145.41 16.98C145.03 16.78 144.44 16.66 143.63 16.6C142.83 16.54 141.73 16.5 140.33 16.47L133.81 16.38C132.2 16.36 130.91 16.26 129.93 16.09C128.96 15.91 128.22 15.65 127.72 15.28C127.22 14.9 126.88 14.4 126.71 13.78C126.55 13.15 126.47 12.37 126.47 11.43C126.47 10.41 126.58 9.57002 126.81 8.90002C127.04 8.24002 127.46 7.72002 128.06 7.34002C128.67 6.97002 129.53 6.71002 130.64 6.56002C131.75 6.40002 133.18 6.33002 134.94 6.33002H139.95C141.55 6.33002 142.87 6.38002 143.94 6.48002C145 6.58002 145.84 6.81002 146.47 7.18002C147.09 7.55002 147.54 8.12002 147.8 8.89002C148.08 9.66002 148.21 10.73 148.21 12.08H145.96C145.96 11.03 145.86 10.24 145.66 9.71002C145.46 9.17002 145.14 8.81002 144.68 8.61002C144.22 8.41002 143.61 8.31002 142.84 8.29002C142.06 8.28002 141.1 8.27002 139.95 8.27002H135.05C133.66 8.27002 132.53 8.30002 131.69 8.35002C130.85 8.41002 130.22 8.53002 129.79 8.73002C129.36 8.92002 129.07 9.24002 128.93 9.66002C128.78 10.09 128.71 10.68 128.71 11.43C128.71 12.07 128.77 12.57 128.87 12.96C128.97 13.34 129.19 13.63 129.55 13.84C129.91 14.03 130.46 14.17 131.2 14.25C131.94 14.32 132.95 14.36 134.23 14.38L141.22 14.47C142.86 14.49 144.17 14.59 145.14 14.76C146.13 14.93 146.86 15.2 147.35 15.57C147.84 15.95 148.16 16.45 148.32 17.09C148.48 17.73 148.57 18.53 148.57 19.5C148.57 20.55 148.46 21.44 148.26 22.16C148.07 22.87 147.68 23.44 147.11 23.87C146.54 24.3 145.72 24.61 144.64 24.79C143.56 24.98 142.14 25.07 140.39 25.07H134.9C133.3 25.07 131.96 25 130.87 24.86C129.78 24.72 128.92 24.44 128.27 24.02C127.63 23.59 127.17 22.95 126.89 22.11C126.6 21.27 126.46 20.14 126.46 18.74H128.71C128.71 19.84 128.8 20.69 128.98 21.29C129.16 21.89 129.48 22.32 129.92 22.59C130.37 22.85 131 23 131.81 23.06C132.62 23.11 133.65 23.13 134.9 23.13H140.27C141.67 23.13 142.77 23.09 143.59 23C144.4 22.91 145 22.74 145.39 22.49C145.78 22.23 146.03 21.86 146.14 21.38C146.26 20.91 146.32 20.28 146.32 19.5ZM109.97 25.07C108.21 25.07 106.76 24.95 105.63 24.71C104.5 24.48 103.61 24.04 102.97 23.4C102.34 22.76 101.89 21.84 101.63 20.63C101.38 19.43 101.26 17.86 101.26 15.93V15.47C101.26 13.87 101.34 12.54 101.49 11.46C101.65 10.37 101.92 9.49002 102.3 8.81002C102.68 8.13002 103.2 7.61002 103.86 7.25002C104.52 6.89002 105.36 6.65002 106.36 6.52002C107.36 6.39002 108.56 6.33002 109.97 6.33002H114.69C116.09 6.33002 117.3 6.39002 118.3 6.52002C119.3 6.65002 120.13 6.89002 120.78 7.25002C121.44 7.61002 121.97 8.13002 122.35 8.81002C122.73 9.49002 123 10.37 123.16 11.46C123.32 12.54 123.39 13.87 123.39 15.47V15.93C123.39 17.86 123.27 19.43 123.01 20.63C122.76 21.84 122.31 22.76 121.67 23.4C121.04 24.04 120.16 24.48 119.02 24.71C117.89 24.95 116.44 25.07 114.69 25.07H109.97ZM109.97 23.13H114.69C115.81 23.13 116.75 23.09 117.51 23.01C118.28 22.93 118.9 22.77 119.38 22.51C119.86 22.25 120.23 21.86 120.48 21.34C120.73 20.81 120.91 20.11 121 19.24C121.1 18.36 121.15 17.26 121.15 15.93V15.47C121.15 14.09 121.1 12.96 121 12.07C120.91 11.18 120.73 10.47 120.48 9.96002C120.23 9.44002 119.86 9.07002 119.38 8.83002C118.9 8.59002 118.28 8.44002 117.51 8.38002C116.75 8.31002 115.81 8.27002 114.69 8.27002H109.97C108.85 8.27002 107.91 8.31002 107.14 8.38002C106.37 8.44002 105.75 8.59002 105.27 8.83002C104.79 9.07002 104.42 9.44002 104.16 9.96002C103.91 10.47 103.74 11.18 103.65 12.07C103.56 12.96 103.51 14.09 103.51 15.47V15.93C103.51 17.26 103.56 18.36 103.65 19.24C103.74 20.11 103.91 20.81 104.16 21.34C104.42 21.86 104.79 22.25 105.27 22.51C105.75 22.77 106.38 22.93 107.14 23.01C107.91 23.09 108.85 23.13 109.97 23.13ZM74.8 24.7V6.70002H77.14L95.22 21.92H95.25V6.70002H97.5V24.7H95.15L77.07 9.35002H77.05V24.7H74.8ZM47.8 24.7L58.3 6.70002H61.3L71.8 24.7H69.17L66.92 20.58H52.67L50.42 24.7H47.8ZM53.8 18.7H65.8L59.8 8.20002L53.8 18.7ZM23.75 24.7V6.70002H26V14.58H42.5V6.70002H44.75V24.7H42.5V16.45H26V24.7H23.75ZM9.1 24.7V8.57002H0.0999985V6.70002H20.35V8.58002H11.35V24.7H9.1Z" fill="white"/>
<path d="M248.769 9.11501L250.176 8.31101L251.151 8.34101L251.078 9.56101L250.677 9.72501L249.504 9.78301L248.769 9.11501ZM244.847 6.41801L245.341 6.18301L245.841 5.96201L246.348 5.75601L246.943 6.91801L245.19 7.38501L244.847 6.41801ZM242.192 7.20901L242.257 7.19401L243.203 8.66101L242.963 8.95601L242.201 9.02401L242.192 7.20901ZM240.636 6.61001L241.056 6.28001L241.497 5.95701L241.957 5.64201L242.445 6.54401L241.652 6.89401L240.636 6.61001ZM244.642 8.98501L245.03 8.49201L245.434 8.01201L245.852 7.54301L246.213 7.69501L246.931 8.52101L245.733 9.70001L244.642 8.98501ZM244.016 6.69701L244.728 7.50101L244.4 8.50401L242.89 7.90001L244.016 6.69701ZM245.676 10.497L245.986 9.58701L246.819 9.93901L246.229 11.136L245.676 10.497ZM248.664 6.82601L247.293 5.63801L247.792 5.50601L248.294 5.38401L248.798 5.27301L249.018 5.41101L248.837 6.68101L248.664 6.82601ZM246.689 9.18701L247.104 8.68301L247.316 8.43501L249.119 8.63701L249.092 8.73101L248.062 9.85501L246.949 9.45501L246.689 9.18701ZM248.043 8.12701L249.024 7.38001L249.841 7.94501L248.014 8.28101L248.043 8.12701ZM249.347 3.64601L249.363 3.53901L251.174 3.13101L251.54 3.36401L250.074 4.28401L249.347 3.64601ZM247.464 10.098L247.508 9.98701L247.629 9.95501L248.526 10.779L248.5 11.482L247.595 11.502L247.464 10.098ZM247.214 0.890015L246.95 0.265015L247.046 0.169014L247.503 0.393014L247.954 0.628015L248.4 0.873014L247.214 0.890015ZM244.445 4.76101L244.799 4.16101L245.491 4.55201L245.449 4.84901L245.077 5.59801L244.431 5.86801L244.445 4.76101ZM247.787 6.74601L248.183 7.51401L247.027 7.80901L247.034 7.87301L246.971 7.86401L246.847 7.64301L247.163 6.90701L247.787 6.74601ZM240.182 3.49101L240.459 3.28101L240.743 3.08001L241.032 2.88801L241.513 3.62401L240.49 4.11801L240.182 3.49101ZM239.896 7.37501L241.005 6.87401L241.033 6.90501L240.407 7.81101L240.157 7.76401L239.896 7.37501ZM237.749 1.05401L238.343 1.22301L237.472 1.72601L237.749 1.05401ZM242.525 1.36601L242.908 1.07201L243.299 0.788015L243.698 0.516015L243.943 0.677015L244.336 1.37001L243.219 2.03501L242.525 1.36601ZM242.364 0.665015L241.97 1.29501L241.216 1.22201L241.303 0.0610147L241.286 0.0600145L241.299 0.0150146L242.364 0.665015ZM245.058 9.54401L245.428 9.90801L245.229 10.304L244.831 10.188L245.058 9.54401ZM249.227 5.94301L249.271 5.92501L250.394 6.02501L250.663 7.03001L250.111 7.25301L249.726 7.08301L249.227 5.94301ZM242.206 5.65501L242.734 5.55001L242.549 6.22401L242.206 5.65501ZM246.863 4.56701L247.057 3.95901L248.181 3.61401L248.188 3.67701L247.844 4.61001L247.082 4.65901L246.863 4.56701ZM244.805 3.81301L245.521 2.99301L246.295 3.11301L245.88 4.14301L244.805 3.81301ZM242.314 4.44601L242.582 3.84101L243.685 3.88901L243.594 4.98301L242.957 5.07601L242.59 4.97201L242.314 4.44601Z" fill="white"/>
</svg>
